<svg data-v-0dd9719b="" version="1.0" xmlns="http://www.w3.org/2000/svg" xmlns:xlink="http://www.w3.org/1999/xlink" width="100%" height="100%" viewBox="0 0 340.000000 250.000000" preserveAspectRatio="xMidYMid meet" color-interpolation-filters="sRGB" style="margin: auto;"> <rect data-v-0dd9719b="" x="0" y="0" width="100%" height="100%" fill="#fff" fill-opacity="1" class="background"></rect> <rect data-v-0dd9719b="" x="0" y="0" width="100%" height="100%" fill="url(#watermark)" fill-opacity="1" class="watermarklayer"></rect> <g data-v-0dd9719b="" fill="#f15a29" class="icon-text-wrapper icon-svg-group iconsvg" transform="translate(48.470001220703125,100.43621253978594)"><g class="iconsvg-imagesvg" transform="translate(0,0)"><g><rect fill="#f15a29" fill-opacity="0" stroke-width="2" x="0" y="0" width="60" height="49.12757612727318" class="image-rect"></rect> <svg x="0" y="0" width="60" height="49.12757612727318" filtersec="colorsb5004636759" class="image-svg-svg primary" style="overflow: visible;"><svg xmlns="http://www.w3.org/2000/svg" viewBox="0.001512289047241211 0.0030450820922851562 123.52848815917969 101.14431762695312"><title>10598</title><g id="fecc4baa-ebbb-40bb-81fd-34d49e36d679"><g id="a9d3677d-b2f1-4416-85af-57c58fff1e35"><path d="M79.1,6C50.92-6.9,12.68,1.54,3.82,26.24-8.5,60.59,10.82,91.47,35.66,99c21.07,6.43,50.62-1.31,65-26.88S103.32,32,87.72,28.06C67.4,23,46.39,27.8,46.36,46.59c0,22.78,20.65,19.65,20.35,16.18-.35-4.07-2.7-15.92,0-18.79s14.46-4.88,16.06,3.39c1.32,6.84,2.77,24-.53,28.18-2.44,3.15-50,18.59-53.89-22.89C24.79,15.08,62.15,14.11,76.5,16S88.22,10.08,79.1,6Z" fill="#f15a29"></path><path d="M92.35,18.68l-2,.19c-2.15.22-2.14,1.74.23,1.65.87-.06,1.75-.16,2.62-.27,8.61,8.47,24.91,4.68,30.29-14.93C123.53,5.32,94.44-7.26,92.35,18.68Z" fill="#8dc63f"></path><path d="M123.53,5.32c-6.42,8.36-25,14.66-31.23,13.93C94-7.46,123.53,5.32,123.53,5.32Z" fill="#4f9a00"></path><path d="M92.3,19.25C97.87,19.87,113.17,15,121,8c-6.55,5.8-20.24,10.35-28.5,9.14C92.41,17.81,92.34,18.51,92.3,19.25Z" fill="#408a00"></path><path d="M101.06,66.78C87.42,91.07,59.35,98.42,39.33,92.31,15.78,85.12-2.61,55.78,9.09,23.15,13.75,10.17,27.15,2.59,42.73.46,24.88,2.54,9.12,11.49,3.82,26.24-8.5,60.59,10.82,91.47,35.66,99c21.07,6.43,50.62-1.31,65-26.88,8.72-15.54,7.83-27,2.29-34.52C107.39,44.48,108.17,54.11,101.06,66.78Z" fill="#f7941e"></path></g></g></svg></svg> <!----></g></g> <g transform="translate(67,0.0025386810302734375)"><g data-gra="path-name" fill-rule="" class="tp-name iconsvg-namesvg" transform="translate(0,0)"><g transform="scale(1)"><g><path d="M16.59-25.73L16.59-29.81Q19.97-28.69 19.97-28.55L19.97-28.55Q19.97-28.41 19.55-28.13L19.55-28.13Q18.7-27.56 18.7-27.28L18.7-27.28 18.7-25.73 25.88-25.73Q26.02-25.73 26.58-26.58L26.58-26.58Q27-27.42 27.14-27.42L27.14-27.42Q29.11-26.44 29.95-25.59L29.95-25.59Q29.95-25.45 29.25-25.03L29.25-25.03Q28.55-24.47 28.55-24.33L28.55-24.33 28.55-18.98Q27.42-18.28 26.44-18.28L26.44-18.28 26.44-20.11 18.7-20.11 18.7-16.73 29.39-16.73 31.22-18.98 34.45-16.17 34.31-15.89 3.94-15.89 2.39-15.75 1.69-16.73 16.59-16.73 16.59-20.11 9.28-20.11 9.28-18.98Q8.3-18.28 7.03-18.28L7.03-18.28Q7.17-22.92 7.17-26.72L7.17-26.72 9.42-25.73 16.59-25.73ZM16.59-20.95L16.59-24.89 9.98-24.89Q9.14-25.03 9.28-23.77L9.28-23.77 9.28-20.95 16.59-20.95ZM26.44-24.89L18.7-24.89 18.7-20.95 26.44-20.95 26.44-24.89ZM25.59-14.48L25.59-14.48Q27.28-13.64 28.55-12.23L28.55-12.23Q28.55-12.09 27.98-11.81L27.98-11.81Q27.28-11.53 27.28-11.39L27.28-11.39Q27.28-8.58 27.42-4.64L27.42-4.64Q26.3-3.8 25.03-3.66L25.03-3.66 25.03-12.09 10.97-12.09Q10.41-12.23 10.41-11.39L10.41-11.39 10.41-3.38Q9.14-2.53 8.02-2.53L8.02-2.53Q8.02-3.52 8.16-5.77L8.16-5.77Q8.3-10.41 8.3-14.2L8.3-14.2 10.83-12.94 24.47-12.94Q24.75-12.94 25.31-14.06L25.31-14.06Q25.59-14.48 25.59-14.48ZM16.31-10.83L16.31-10.83Q19.83-9.7 19.69-9.28L19.69-9.28Q19.69-9.28 19.55-9.14L19.55-9.14Q18.7-9 18.56-8.16L18.56-8.16Q17.86 2.11 1.69 4.36L1.69 4.36 1.55 3.8Q10.41 1.41 13.08-1.41L13.08-1.41Q16.03-4.22 16.31-10.83ZM18.42-3.66L18.7-4.22Q27-1.97 29.81-0.7L29.81-0.7Q31.92 1.27 30.66 3.52L30.66 3.52Q30.38 3.66 29.11 2.53L29.11 2.53Q24.33-1.83 18.42-3.66L18.42-3.66ZM45.28-29.11L45.28-29.11Q48.09-27.98 48.94-27.56L48.94-27.56Q48.94-27.56 48.52-27.14L48.52-27.14Q47.67-26.58 47.67-26.44L47.67-26.44Q47.81-6.47 45.56-3.23L45.56-3.23Q43.45 0.56 37.41 3.94L37.41 3.94 36.98 3.38Q47.25-0.98 45.28-25.31L45.28-25.31Q45.28-27.84 45.28-29.11ZM64.13-28.83L64.13-28.83Q66.94-27.84 67.64-27.28L67.64-27.28Q67.64-27.28 67.22-26.86L67.22-26.86Q66.52-26.16 66.52-26.02L66.52-26.02 66.94 2.39Q66.23 3.23 64.27 3.52L64.27 3.52Q64.27 1.27 64.27-8.86L64.27-8.86Q64.13-24.05 64.13-28.83ZM54.84-27.98L54.84-27.98Q57.8-26.86 58.22-26.3L58.22-26.3Q58.22-26.3 57.8-25.88L57.8-25.88Q57.09-25.17 57.09-25.03L57.09-25.03 57.09-1.27Q56.67-0.7 54.7-0.14L54.7-0.14Q54.84-7.59 54.84-15.61L54.84-15.61Q54.98-23.2 54.84-27.98ZM41.06-19.55L41.06-19.55 41.48-19.69Q43.03-13.64 41.34-11.53L41.34-11.53Q40.22-10.13 38.81-10.41L38.81-10.41Q37.41-10.83 38.39-12.23L38.39-12.23Q38.53-12.38 38.67-12.52L38.67-12.52Q40.92-14.63 41.06-19.55ZM48.52-18.98L49.08-19.27Q52.59-15.61 52.73-14.63L52.73-14.63Q52.59-11.53 50.63-11.67L50.63-11.67Q50.2-11.81 50.2-13.08L50.2-13.08Q50.2-16.31 48.52-18.98L48.52-18.98ZM58.22-18.98L58.64-19.41Q61.88-16.17 62.44-14.48L62.44-14.48Q62.02-11.81 60.33-11.81L60.33-11.81Q60.19-11.95 60.05-12.94L60.05-12.94Q59.77-16.31 58.22-18.98L58.22-18.98ZM86.63-28.97L86.77-29.25Q90.98-28.13 91.55-26.86L91.55-26.86Q92.11-25.59 90.84-23.91L90.84-23.91 101.11-23.91 102.8-26.16 106.17-23.34 106.17-23.06 75.8-23.06 74.25-22.78 73.55-23.91 89.44-23.91Q89.16-26.58 86.63-28.97L86.63-28.97ZM97.59-20.25L97.59-20.25Q99.28-18.98 100.41-17.72L100.41-17.72Q100.41-17.72 99.84-17.44L99.84-17.44Q99-17.02 99-16.88L99-16.88 99.14-9.56Q98.44-8.86 96.89-8.58L96.89-8.58 96.89-10.13 91.13-10.13Q91.27 1.41 91.13 1.69L91.13 1.69Q90.28 3.52 87.47 3.94L87.47 3.94Q87.89 1.27 82.69 0.28L82.69 0.28 82.83-0.14Q88.17 0.7 88.88 0.28L88.88 0.28Q89.02-0.56 89.02-10.13L89.02-10.13 82.13-10.13 82.13-9.28Q81.14-8.44 79.88-8.44L79.88-8.44Q80.16-15.19 80.3-19.97L80.3-19.97Q80.44-19.97 82.69-18.7L82.69-18.7 96.33-18.7Q97.45-20.25 97.59-20.25ZM96.89-10.97L96.89-17.86 83.53-17.86Q81.98-18.14 82.13-16.31L82.13-16.31 82.13-10.97 96.89-10.97ZM82.83-7.45L82.83-7.45Q85.78-5.63 85.64-5.48L85.64-5.48Q85.64-5.34 85.22-5.34L85.22-5.34Q84.38-5.34 83.67-4.64L83.67-4.64Q77.48 0.56 72.84 2.67L72.84 2.67 72.7 2.25Q79.31-2.11 82.83-7.45ZM94.64-6.19L94.78-6.61Q100.69-4.5 102.94-2.25L102.94-2.25Q104.48 0.28 101.95 1.55L101.95 1.55Q101.67 1.55 101.25 0.56L101.25 0.56Q99.28-3.52 94.64-6.19L94.64-6.19ZM116.16-29.39L116.16-29.39Q116.44-29.53 118.97-27.7L118.97-27.7 131.63-27.7Q131.63-27.7 131.91-28.13L131.91-28.13Q132.89-29.39 133.03-29.39L133.03-29.39Q134.72-28.69 135.84-27.56L135.84-27.56Q135.84-27.42 135.14-26.86L135.14-26.86Q134.72-26.58 134.72-26.58L134.72-26.58 134.86-16.03Q134.16-15.33 132.61-15.05L132.61-15.05 132.61-16.59 120.38-16.59Q122.06-15.19 122.48-14.34L122.48-14.34Q121.64-14.34 121.08-13.78L121.08-13.78Q120.52-13.5 119.53-12.23L119.53-12.23 136.41-12.23Q136.55-12.38 137.11-12.94L137.11-12.94Q137.81-13.78 137.95-13.78L137.95-13.78Q139.5-12.8 140.48-11.39L140.48-11.39Q140.48-11.25 139.5-10.83L139.5-10.83Q138.94-10.41 138.94-10.41L138.94-10.41Q137.53-2.25 136.27 0.56L136.27 0.56Q134.72 3.52 131.63 3.94L131.63 3.94Q132.05 1.69 127.13 0.56L127.13 0.56 127.27 0.14Q132.61 1.27 133.59 0.14L133.59 0.14Q135.42-1.27 136.83-11.39L136.83-11.39 132.33-11.39Q128.53 1.55 114.61 4.08L114.61 4.08 114.47 3.66Q126.84 0 129.8-11.39L129.8-11.39 125.72-11.39Q121.78-2.25 110.11 0.98L110.11 0.98 109.97 0.56Q120.09-3.52 123.05-11.39L123.05-11.39 118.83-11.39Q113.34-6.33 109.83-4.36L109.83-4.36 109.41-4.78Q115.88-9.7 120.09-16.59L120.09-16.59 118.27-16.59 118.27-15.75Q117-14.77 116.02-14.77L116.02-14.77Q115.88-19.69 116.16-29.39ZM132.61-26.86L120.09-26.86Q117.98-27.14 118.27-24.89L118.27-24.89 118.27-22.64 132.61-22.64 132.61-26.86ZM132.61-21.94L118.27-21.94 118.27-17.44 132.61-17.44 132.61-21.94ZM169.03-25.45L170.44-27.7 173.67-25.03 173.53-24.75 152.02-24.75 150.47-24.19 149.91-25.45 169.03-25.45ZM172.69-15.61L174.52-18 177.61-15.05 177.61-14.77 160.31-14.77 163.13-12.94Q163.13-12.8 162.7-12.66L162.7-12.66Q161.44-12.52 160.88-11.67L160.88-11.67Q156.38-5.2 151.88-1.13L151.88-1.13Q152.02-0.98 157.36-1.27L157.36-1.27Q165.38-1.55 170.86-1.69L170.86-1.69Q169.17-6.05 165.23-10.13L165.23-10.13 165.66-10.41Q171.28-6.47 173.67-2.53L173.67-2.53Q175.36 0.98 172.69 2.39L172.69 2.39Q171.98 2.53 171.56 0.56L171.56 0.56Q171.28-0.42 171.14-0.84L171.14-0.84Q155.11 0.7 151.17 1.83L151.17 1.83Q150.89 1.83 150.89 1.83L150.89 1.83 148.78-1.13Q148.78-1.13 148.92-1.27L148.92-1.27Q151.59-1.55 154.41-5.48L154.41-5.48Q157.78-10.69 159.61-14.77L159.61-14.77 148.22-14.77 146.67-14.34 145.83-15.61 172.69-15.61Z" transform="translate(-1.5499999523162842, 29.809999465942383)"></path></g> <!----> <!----> <!----> <!----> <!----> <!----> <!----></g></g> <g data-gra="path-slogan" fill-rule="" class="tp-slogan iconsvg-slogansvg" fill="#f15a29" transform="translate(27.629444122314453,40.16999816894531)"><!----> <!----> <g transform="scale(1, 1)"><g transform="scale(1)"><path d="M7.31-3.61L4.69-3.61L4.69-4.59L8.44-4.59L8.44 0L7.69 0L7.41-1.08Q6.42 0.09 4.59 0.14L4.59 0.14Q2.86 0.14 1.92-0.75L1.92-0.75Q0.52-2.06 0.56-4.36L0.56-4.36Q0.89-8.63 4.64-8.81L4.64-8.81Q7.83-8.63 8.30-6L8.30-6L7.17-6Q6.70-7.78 4.59-7.83L4.59-7.83Q1.92-7.64 1.78-4.31L1.78-4.31Q1.78-0.75 4.64-0.75L4.64-0.75Q5.67-0.75 6.42-1.31L6.42-1.31Q7.36-2.06 7.31-3.61L7.31-3.61ZM15.89-3.19L15.89-8.58L17.06-8.58L17.06-3.05Q16.92 0.05 13.55 0.14L13.55 0.14Q10.41 0.05 10.27-2.86L10.27-2.86L10.27-8.58L11.44-8.58L11.44-3.19Q11.48-0.84 13.59-0.80L13.59-0.80Q15.89-0.84 15.89-3.19L15.89-3.19ZM19.03-8.58L20.20-8.58L20.20 0L19.03 0L19.03-8.58ZM23.02-1.03L28.31-1.03L28.31 0L21.56 0L21.56-0.94L26.81-7.59L21.94-7.59L21.94-8.58L28.31-8.58L28.31-7.59L23.02-1.03ZM30.61-5.06L35.11-5.06L35.11-8.58L36.28-8.58L36.28 0L35.11 0L35.11-3.98L30.61-3.98L30.61 0L29.44 0L29.44-8.58L30.61-8.58L30.61-5.06ZM44.86-4.27L44.86-4.27Q44.67-7.64 41.86-7.83L41.86-7.83Q39-7.69 38.86-4.27L38.86-4.27Q39-0.94 41.86-0.80L41.86-0.80Q44.67-0.98 44.86-4.27ZM46.03-4.27L46.03-4.27Q45.75 0 41.86 0.14L41.86 0.14Q37.92 0 37.64-4.27L37.64-4.27Q37.88-8.72 41.86-8.81L41.86-8.81Q45.75-8.67 46.03-4.27ZM53.06-3.19L53.06-8.58L54.23-8.58L54.23-3.05Q54.09 0.05 50.72 0.14L50.72 0.14Q47.58 0.05 47.44-2.86L47.44-2.86L47.44-8.58L48.61-8.58L48.61-3.19Q48.66-0.84 50.77-0.80L50.77-0.80Q53.06-0.84 53.06-3.19L53.06-3.19ZM58.64-1.92L58.64-2.77L59.72-2.77L59.72-2.16Q59.72-0.75 61.03-0.75L61.03-0.75Q62.39-0.75 62.39-2.25L62.39-2.25L62.39-8.58L63.56-8.58L63.56-2.30Q63.52 0.09 61.08 0.14L61.08 0.14Q58.78 0.09 58.64-1.92L58.64-1.92ZM65.53-8.58L66.70-8.58L66.70 0L65.53 0L65.53-8.58ZM70.08-8.58L74.39-1.64L74.39-8.58L75.52-8.58L75.52 0L74.20 0L69.84-6.94L69.80-6.94L69.80 0L68.67 0L68.67-8.58L70.08-8.58ZM83.72-3.61L81.09-3.61L81.09-4.59L84.84-4.59L84.84 0L84.09 0L83.81-1.08Q82.83 0.09 81 0.14L81 0.14Q79.27 0.14 78.33-0.75L78.33-0.75Q76.92-2.06 76.97-4.36L76.97-4.36Q77.30-8.63 81.05-8.81L81.05-8.81Q84.23-8.63 84.70-6L84.70-6L83.58-6Q83.11-7.78 81-7.83L81-7.83Q78.33-7.64 78.19-4.31L78.19-4.31Q78.19-0.75 81.05-0.75L81.05-0.75Q82.08-0.75 82.83-1.31L82.83-1.31Q83.77-2.06 83.72-3.61L83.72-3.61ZM93.56-8.58L90.33-3.47L90.33 0L89.16 0L89.16-3.47L85.92-8.58L87.28-8.58L89.72-4.45L92.20-8.58L93.56-8.58ZM94.78-8.58L95.95-8.58L95.95 0L94.78 0L94.78-8.58ZM104.86-8.58L101.63-3.47L101.63 0L100.45 0L100.45-3.47L97.22-8.58L98.58-8.58L101.02-4.45L103.50-8.58L104.86-8.58ZM111.56-3.19L111.56-8.58L112.73-8.58L112.73-3.05Q112.59 0.05 109.22 0.14L109.22 0.14Q106.08 0.05 105.94-2.86L105.94-2.86L105.94-8.58L107.11-8.58L107.11-3.19Q107.16-0.84 109.27-0.80L109.27-0.80Q111.56-0.84 111.56-3.19L111.56-3.19ZM115.92-8.58L120.23-1.64L120.23-8.58L121.36-8.58L121.36 0L120.05 0L115.69-6.94L115.64-6.94L115.64 0L114.52 0L114.52-8.58L115.92-8.58Z" transform="translate(-0.5609879032258065, 8.8125)"></path></g></g></g></g></g><defs v-gra="od"></defs></svg>